<svg width="800" height="800" viewBox="0 0 800 800" fill="none" xmlns="http://www.w3.org/2000/svg">
<path fill-rule="evenodd" clip-rule="evenodd" d="M379.261 201.554L135.361 218.29C122.134 226.001 114 240.158 114 255.469V544.531C114 559.842 122.134 574 135.361 581.71L379.687 724.143C393.127 731.978 409.748 731.95 423.161 724.07L665.436 581.734C678.592 574.004 686.671 559.887 686.671 544.628V255.372C686.671 240.114 678.592 225.996 665.436 218.266L422.735 201.628C409.322 193.748 392.7 193.719 379.261 201.554ZM379.261 201.554L245.294 279.652C232.067 287.362 223.932 301.52 223.932 316.831V475.926C223.932 491.236 232.067 505.394 245.294 513.105L379.261 591.202C392.701 599.037 409.322 599.009 422.735 591.129L555.503 513.128C568.659 505.399 576.739 491.281 576.739 476.022V316.734C576.739 301.476 568.659 287.358 555.503 279.628L422.735 201.628C409.322 193.748 392.7 193.719 379.261 201.554Z" fill="#FF6600"/>
<path fill-rule="evenodd" clip-rule="evenodd" d="M570.848 497.752C574.642 491.267 576.737 483.792 576.737 476.022V297.459L682.313 236.504C678.662 229.02 672.855 222.627 665.434 218.266L423.159 75.9298C409.746 68.0498 393.125 68.0217 379.685 75.8564L135.36 218.29C127.904 222.636 122.066 229.031 118.391 236.526L223.931 297.459L570.848 497.752Z" fill="#4D4D4D"/>
<path fill-rule="evenodd" clip-rule="evenodd" d="M400.334 70.0121C393.19 70.1821 386.077 72.1298 379.685 75.8562L135.36 218.289C127.904 222.636 122.066 229.031 118.391 236.526L223.931 297.459L223.931 475.925C223.931 483.725 226.042 491.226 229.862 497.727L400.334 399.305V70.0121Z" fill="#38383A"/>
</svg>
