<svg width="1026" height="250" viewBox="0 0 1026 250" fill="none" xmlns="http://www.w3.org/2000/svg">
<path d="M382.92 212.384C382.92 206.463 383.234 175.783 383.606 144.205C383.977 112.627 384.285 84.4472 384.291 81.5823L384.304 76.3734H399.83H415.357L415.359 82.5084C415.362 88.333 414.585 164.996 414.3 186.918L414.166 197.22H700.727H987.288V210.185V223.149H685.096H382.908L382.922 212.384H382.92ZM288.128 178.676C268.983 177.095 255.605 172.839 246.427 165.408C240.668 160.746 236.528 154.029 234.499 146.057C233.438 141.891 233.438 141.879 233.569 110.868C233.641 93.8059 233.816 79.0647 233.957 78.1097L234.215 76.3734H249.493H264.771L264.631 108.437L264.491 140.501L265.589 142.928C269.03 150.532 278.331 153.236 301.039 153.233C312.315 153.231 317.793 152.691 322.55 151.112C326.711 149.731 328.98 148.328 331.149 145.797C334.519 141.863 335.151 137.388 335.164 117.35C335.164 109.71 335.311 97.3653 335.479 89.9166L335.784 76.3734H351.309H366.833L366.5 106.74C366.15 138.675 365.916 142.429 363.888 148.604C360.592 158.646 353.513 166.558 343.282 171.635C337.03 174.739 330.425 176.618 320.804 178.031C314.928 178.894 295.435 179.279 288.128 178.676ZM532.845 178.759C530.432 178.129 528.074 176.816 525.793 174.832C524.578 173.776 509.961 160.544 493.311 145.428C476.661 130.311 462.909 118.073 462.75 118.232C462.502 118.48 461.829 153.676 461.733 171.407L461.701 177.311H447.506H433.31L433.597 169.555C433.755 165.29 434.009 148.048 434.162 131.241C434.315 114.433 434.596 97.6389 434.786 93.9198C435.102 87.7555 435.256 86.8943 436.53 84.1746C438.385 80.2137 440.211 78.2298 443.725 76.3547C446.232 75.0171 447.196 74.7734 450.642 74.6067C455.701 74.362 458.51 75.2297 462.095 78.1448C463.536 79.3156 478.443 92.7496 495.223 107.998C512.003 123.246 525.827 135.628 525.942 135.513C526.099 135.357 526.951 90.429 527.04 77.6468L527.051 75.9105H541.256H555.461L555.162 91.5372C554.998 100.132 554.746 119.144 554.602 133.787C554.459 148.43 554.136 161.869 553.885 163.652C552.613 172.677 546.294 178.67 537.711 178.991C535.8 179.063 533.61 178.958 532.845 178.759ZM572.011 170.713C572.011 166.829 572.148 160.995 572.314 157.748L572.615 151.845H628.625H684.634V164.809V177.774H628.322H572.009V170.713H572.011ZM849.169 177.545C849.169 177.385 853.665 171.543 859.159 164.562L869.149 151.869L910.026 151.741C948.732 151.62 951.007 151.568 952.878 150.75C955.786 149.48 956.912 147.638 956.921 144.132C956.928 140.745 956.001 139.15 953.19 137.723C951.428 136.828 950.166 136.788 916.142 136.529C884.817 136.291 880.532 136.171 877.441 135.449C865.3 132.615 857.563 126.334 854.601 116.906C853.753 114.204 853.583 112.616 853.614 107.627C853.646 102.424 853.818 101.1 854.881 97.8673C858.697 86.2643 868.24 79.5341 884.393 77.0547C888.039 76.4952 897.037 76.3785 936.689 76.3762C964.895 76.3749 984.518 76.5448 984.427 76.7904C984.342 77.0197 979.893 82.8377 974.54 89.7192L964.807 102.231L926.802 102.382C889.872 102.53 888.745 102.56 886.972 103.46C884.327 104.803 883.344 106.381 883.316 109.327C883.286 112.463 884.316 114.43 886.574 115.551C888.234 116.375 890.311 116.44 923.557 116.713C960.674 117.018 960.581 117.013 968.236 119.236C974.937 121.182 981.275 125.895 983.96 130.926C986.127 134.988 986.964 138.795 986.931 144.437C986.822 162.963 977.295 172.987 956.233 176.733C952.921 177.322 944.079 177.466 900.731 177.634C872.372 177.744 849.169 177.704 849.169 177.545ZM699.929 169.052C699.929 164.51 700.067 152.946 700.236 143.355L700.543 125.916L746.004 125.908C783.266 125.902 792.02 125.783 794.539 125.249C802.577 123.547 807.174 118.586 806.341 112.514C805.748 108.191 802.852 104.992 798.05 103.356C795.769 102.579 789.547 102.527 684.213 102.413L572.789 102.293L573.094 93.1945C573.262 88.1903 573.399 82.3547 573.399 80.2265V76.3571L685.909 76.4899C789.494 76.6123 798.75 76.6852 802.603 77.4097C812.725 79.3128 822.026 83.102 827.025 87.3592C829.842 89.7577 833.875 94.5087 835.095 96.8662C837.691 101.882 838.856 109.277 838.068 115.749C836.439 129.132 828.046 139.359 815.416 143.349L811.557 144.568L816.857 149.572C821.029 153.511 837.258 170.485 842.382 176.269L843.305 177.311H822.625H801.945L790.912 163.908L779.879 150.504L755.431 150.48L730.982 150.456V163.883V177.311H715.455H699.929V169.052ZM572.474 133.44C572.474 131.212 572.612 126.107 572.778 122.096L573.081 114.804H628.858H684.634V126.148V137.491H628.553H572.473V133.44H572.474Z" fill="#FD6500"/>
<path d="M327.495 213.227C331.055 219.913 332.918 222.939 333.752 223.393C334.405 223.748 336.063 224.046 337.435 224.056C339.683 224.073 340.071 223.921 341.374 222.515C342.169 221.657 344.801 217.077 347.222 212.338C349.644 207.599 351.782 203.717 351.973 203.712C352.164 203.707 352.325 204.067 352.338 204.513C352.348 204.958 353.462 209.386 354.814 214.352L357.272 223.381L362.268 223.512C366.186 223.616 367.215 223.516 367.037 223.05C366.913 222.722 365.089 216.412 362.985 209.027C358.42 193.008 358.154 192.291 356.457 191.415C354.558 190.433 351.297 190.548 349.901 191.645C348.859 192.464 341.822 204.335 338.663 210.601L337.404 213.101L335.768 210.138C334.869 208.508 332.229 203.863 329.902 199.814C325.387 191.961 324.227 190.741 321.268 190.741C319.477 190.741 316.934 192.078 316.255 193.376C315.851 194.148 307.363 222.76 307.363 223.349C307.363 223.494 309.512 223.612 312.139 223.612H316.915L319.124 215.256C320.339 210.66 321.45 206.18 321.593 205.301C321.735 204.422 321.981 203.703 322.139 203.704C322.297 203.705 324.707 207.99 327.495 213.227Z" fill="#4C4C4C"/>
<path fill-rule="evenodd" clip-rule="evenodd" d="M271.212 223.394C266.046 222.418 261.172 219.794 259.284 216.971C257.3 214.006 256.673 211.651 256.676 207.175C256.676 200.354 259.058 196.151 264.395 193.532C269.06 191.243 273.067 190.627 281.872 190.848C288.69 191.02 289.916 191.177 293.181 192.298C295.195 192.99 297.631 194.12 298.595 194.809C302.412 197.54 304.35 202.447 304.028 208.572C303.617 216.384 299.934 220.592 291.375 223.026C287.98 223.992 275.578 224.218 271.212 223.394ZM288.454 215.216C292.937 214.259 294.987 210.708 294.175 205.303C293.758 202.524 291.793 200.286 289.178 199.614C284.018 198.287 272.908 198.635 269.84 200.22C267.293 201.536 266.511 203.386 266.67 207.723C266.797 211.204 266.921 211.63 268.185 212.948C268.942 213.737 270.506 214.674 271.661 215.029C274.272 215.833 285.005 215.953 288.454 215.216Z" fill="#4C4C4C"/>
<path d="M215.177 217.303C217.249 219.656 222.338 222.438 225.791 223.107C226.938 223.329 232.257 223.523 237.61 223.539L247.343 223.567L250.498 219.422L253.653 215.278H241.181C228.046 215.278 226.761 215.115 224.053 213.106C222.041 211.614 221.156 209.772 221.156 207.074C221.156 204.141 222.704 201.846 225.658 200.4C227.713 199.394 228.598 199.297 237.681 199.077L247.486 198.841L250.328 195.137L253.17 191.433L239.856 191.31C225.357 191.176 223.796 191.37 219.141 193.887C216.226 195.463 213.093 198.972 212.161 201.704C210.411 206.834 211.665 213.318 215.177 217.303Z" fill="#4C4C4C"/>
<path fill-rule="evenodd" clip-rule="evenodd" d="M119.463 64.8649L45.4796 69.9362C41.4674 72.2729 39 76.5631 39 81.2026V168.797C39 173.437 41.4674 177.727 45.4796 180.064L119.592 223.225C123.669 225.599 128.71 225.591 132.779 223.203L206.269 180.071C210.26 177.728 212.711 173.45 212.711 168.827V81.1734C212.711 76.5495 210.26 72.2714 206.269 69.9292L132.65 64.8872C128.581 62.4993 123.539 62.4907 119.463 64.8649ZM119.463 64.8649L78.8259 88.5307C74.8137 90.8674 72.3462 95.1576 72.3462 99.7972V148.008C72.3462 152.647 74.8137 156.938 78.8259 159.274L119.463 182.94C123.539 185.314 128.581 185.306 132.65 182.918L172.923 159.281C176.914 156.939 179.364 152.661 179.364 148.037V99.7679C179.364 95.1441 176.914 90.8659 172.923 88.5237L132.65 64.8872C128.581 62.4993 123.539 62.4907 119.463 64.8649Z" fill="#FF6600"/>
<path fill-rule="evenodd" clip-rule="evenodd" d="M177.578 154.622C178.729 152.657 179.365 150.392 179.365 148.037V93.9269L211.389 75.4559C210.282 73.1879 208.521 71.2505 206.269 69.9292L132.779 26.7969C128.711 24.409 123.669 24.4005 119.592 26.7747L45.4799 69.9362C43.2183 71.2533 41.4475 73.1912 40.3328 75.4624L72.3465 93.927L177.578 154.622Z" fill="#4D4D4D"/>
<path fill-rule="evenodd" clip-rule="evenodd" d="M125.856 25.0037C123.688 25.0552 121.531 25.6454 119.592 26.7746L45.4799 69.9362C43.2183 71.2533 41.4475 73.1911 40.3328 75.4623L72.3465 93.9269L72.3465 148.008C72.3465 150.371 72.9869 152.644 74.1456 154.614L125.856 124.789V25.0037Z" fill="#38383A"/>
</svg>
